<?xml version="1.0" standalone="no"?>
<!DOCTYPE svg PUBLIC "-//W3C//DTD SVG 20010904//EN"
 "http://www.w3.org/TR/2001/REC-SVG-20010904/DTD/svg10.dtd">
<svg version="1.0" xmlns="http://www.w3.org/2000/svg"
 width="512.000000pt" height="512.000000pt" viewBox="0 0 512.000000 512.000000"
 preserveAspectRatio="xMidYMid meet">

<g transform="translate(0.000000,512.000000) scale(0.100000,-0.100000)"
fill="#000000" stroke="none">
<path d="M425 4935 l-25 -24 0 -271 0 -271 25 -24 c20 -21 34 -25 80 -25 l55
0 0 -320 0 -320 -95 0 c-88 0 -98 -2 -120 -25 -24 -23 -25 -29 -25 -160 l0
-135 -55 0 c-46 0 -60 -4 -80 -25 l-25 -24 0 -1551 0 -1551 25 -24 24 -25
2351 0 2351 0 24 25 25 24 0 1551 0 1551 -25 24 c-22 23 -32 25 -120 25 l-95
0 0 135 c0 131 -1 137 -25 160 -20 21 -34 25 -80 25 l-55 0 0 320 0 320 55 0
c46 0 60 4 80 25 l25 24 0 271 0 271 -25 24 -24 25 -591 0 -591 0 -24 -25 -25
-24 0 -271 0 -271 25 -24 c20 -21 34 -25 80 -25 l55 0 0 -320 0 -320 -280 0
-280 0 0 320 0 320 55 0 c46 0 60 4 80 25 l25 24 0 271 0 271 -25 24 -24 25
-591 0 -591 0 -24 -25 -25 -24 0 -271 0 -271 25 -24 c20 -21 34 -25 80 -25
l55 0 0 -320 0 -320 -280 0 -280 0 0 320 0 320 55 0 c46 0 60 4 80 25 l25 24
0 271 0 271 -25 24 -24 25 -591 0 -591 0 -24 -25z m295 -295 l0 -160 -80 0
-80 0 0 160 0 160 80 0 80 0 0 -160z m480 0 l0 -160 -160 0 -160 0 0 160 0
160 160 0 160 0 0 -160z m320 0 l0 -160 -80 0 -80 0 0 160 0 160 80 0 80 0 0
-160z m720 0 l0 -160 -80 0 -80 0 0 160 0 160 80 0 80 0 0 -160z m480 0 l0
-160 -160 0 -160 0 0 160 0 160 160 0 160 0 0 -160z m320 0 l0 -160 -80 0 -80
0 0 160 0 160 80 0 80 0 0 -160z m720 0 l0 -160 -80 0 -80 0 0 160 0 160 80 0
80 0 0 -160z m480 0 l0 -160 -160 0 -160 0 0 160 0 160 160 0 160 0 0 -160z
m320 0 l0 -160 -80 0 -80 0 0 160 0 160 80 0 80 0 0 -160z m-3520 -800 l0
-160 -160 0 -160 0 0 160 0 160 160 0 160 0 0 -160z m1520 0 l0 -160 -160 0
-160 0 0 160 0 160 160 0 160 0 0 -160z m1520 0 l0 -160 -160 0 -160 0 0 160
0 160 160 0 160 0 0 -160z m480 -400 l0 -80 -2040 0 -2040 0 0 80 0 80 2040 0
2040 0 0 -80z m240 -1680 l0 -1440 -2240 0 -2240 0 0 1440 0 1440 2240 0 2240
0 0 -1440z"/>
<path d="M505 2935 l-25 -24 0 -1151 0 -1151 25 -24 24 -25 1074 0 1074 0 21
23 22 23 0 1155 0 1156 -23 21 -23 22 -1073 0 -1072 0 -24 -25z m2055 -400 l0
-265 -167 -200 -166 -200 -31 23 c-235 177 -250 187 -280 187 -26 0 -60 -30
-253 -222 l-223 -222 -143 142 c-128 126 -147 142 -177 142 -31 0 -55 -21
-257 -222 l-223 -222 0 662 0 662 960 0 960 0 0 -265z m0 -1170 l0 -645 -960
0 -960 0 0 263 0 262 240 240 240 239 143 -142 c128 -126 147 -142 177 -142
31 0 55 21 261 227 l228 226 142 -106 c135 -101 164 -116 202 -101 9 3 75 77
148 165 72 87 133 159 135 159 2 0 4 -290 4 -645z"/>
<path d="M2902 2937 c-21 -22 -22 -32 -22 -218 0 -258 -20 -239 241 -239 258
0 239 -20 239 241 0 258 20 239 -241 239 -191 0 -196 0 -217 -23z m298 -217
l0 -80 -80 0 -80 0 0 80 0 80 80 0 80 0 0 -80z"/>
<path d="M3542 2937 c-21 -22 -22 -32 -22 -218 0 -258 -20 -239 241 -239 258
0 239 -20 239 241 0 258 20 239 -241 239 -191 0 -196 0 -217 -23z m298 -217
l0 -80 -80 0 -80 0 0 80 0 80 80 0 80 0 0 -80z"/>
<path d="M4182 2937 c-21 -22 -22 -32 -22 -218 0 -258 -20 -239 241 -239 258
0 239 -20 239 241 0 258 20 239 -241 239 -191 0 -196 0 -217 -23z m298 -217
l0 -80 -80 0 -80 0 0 80 0 80 80 0 80 0 0 -80z"/>
<path d="M2902 2297 c-21 -22 -22 -32 -22 -218 0 -258 -20 -239 241 -239 258
0 239 -20 239 241 0 258 20 239 -241 239 -191 0 -196 0 -217 -23z m298 -217
l0 -80 -80 0 -80 0 0 80 0 80 80 0 80 0 0 -80z"/>
<path d="M3542 2297 c-21 -22 -22 -32 -22 -218 0 -258 -20 -239 241 -239 258
0 239 -20 239 241 0 258 20 239 -241 239 -191 0 -196 0 -217 -23z m298 -217
l0 -80 -80 0 -80 0 0 80 0 80 80 0 80 0 0 -80z"/>
<path d="M4182 2297 c-21 -22 -22 -32 -22 -218 0 -258 -20 -239 241 -239 258
0 239 -20 239 241 0 258 20 239 -241 239 -191 0 -196 0 -217 -23z m298 -217
l0 -80 -80 0 -80 0 0 80 0 80 80 0 80 0 0 -80z"/>
<path d="M2902 1657 c-21 -22 -22 -32 -22 -218 0 -258 -20 -239 241 -239 258
0 239 -20 239 241 0 258 20 239 -241 239 -191 0 -196 0 -217 -23z m298 -217
l0 -80 -80 0 -80 0 0 80 0 80 80 0 80 0 0 -80z"/>
<path d="M3542 1657 c-21 -22 -22 -32 -22 -218 0 -258 -20 -239 241 -239 258
0 239 -20 239 241 0 258 20 239 -241 239 -191 0 -196 0 -217 -23z m298 -217
l0 -80 -80 0 -80 0 0 80 0 80 80 0 80 0 0 -80z"/>
<path d="M4182 1657 c-21 -22 -22 -32 -22 -218 0 -258 -20 -239 241 -239 258
0 239 -20 239 241 0 258 20 239 -241 239 -191 0 -196 0 -217 -23z m298 -217
l0 -80 -80 0 -80 0 0 80 0 80 80 0 80 0 0 -80z"/>
<path d="M2902 1017 c-21 -22 -22 -32 -22 -218 0 -258 -20 -239 241 -239 258
0 239 -20 239 241 0 258 20 239 -241 239 -191 0 -196 0 -217 -23z m298 -217
l0 -80 -80 0 -80 0 0 80 0 80 80 0 80 0 0 -80z"/>
<path d="M3542 1017 c-21 -22 -22 -32 -22 -218 0 -258 -20 -239 241 -239 258
0 239 -20 239 241 0 258 20 239 -241 239 -191 0 -196 0 -217 -23z m298 -217
l0 -80 -80 0 -80 0 0 80 0 80 80 0 80 0 0 -80z"/>
<path d="M4182 1017 c-21 -22 -22 -32 -22 -218 0 -258 -20 -239 241 -239 258
0 239 -20 239 241 0 258 20 239 -241 239 -191 0 -196 0 -217 -23z m298 -217
l0 -80 -80 0 -80 0 0 80 0 80 80 0 80 0 0 -80z"/>
</g>
</svg>
